{
    "asset" : {
        "generator" : "Khronos glTF Blender I/O v1.5.17",
        "version" : "2.0"
    },
    "scene" : 0,
    "scenes" : [
        {
            "extras" : {
                "glTF2ExportSettings" : {
                    "export_apply" : 1,
                    "export_cameras" : 1,
                    "export_extras" : 1,
                    "export_format" : "GLTF_EMBEDDED",
                    "export_lights" : 0,
                    "export_tangents" : 1,
                    "use_selection" : 0
                }
            },
            "name" : "Scene",
            "nodes" : [
                0,
                1
            ]
        }
    ],
    "nodes" : [
        {
            "mesh" : 0,
            "name" : "Cube.033",
            "rotation" : [
                0,
                0,
                0.709269642829895,
                0.7049372792243958
            ],
            "scale" : [
                -0.06481241434812546,
                -0.22431765496730804,
                -0.06567752361297607
            ],
            "translation" : [
                -7.540890693664551,
                6.798060417175293,
                7.455758094787598
            ]
        },
        {
            "mesh" : 1,
            "name" : "Cube.072",
            "rotation" : [
                0.2604438066482544,
                -0.2620444595813751,
                0.6590873599052429,
                0.6550615429878235
            ],
            "scale" : [
                -0.1396525353193283,
                -0.25383123755455017,
                -0.14151285588741302
            ],
            "translation" : [
                6.30019474029541,
                2.635056495666504,
                -6.943987846374512
            ]
        }
    ],
    "animations" : [
        {
            "channels" : [
                {
                    "sampler" : 0,
                    "target" : {
                        "node" : 0,
                        "path" : "rotation"
                    }
                }
            ],
            "name" : "Cube.033Action",
            "samplers" : [
                {
                    "input" : 10,
                    "interpolation" : "LINEAR",
                    "output" : 11
                }
            ]
        },
        {
            "channels" : [
                {
                    "sampler" : 0,
                    "target" : {
                        "node" : 1,
                        "path" : "rotation"
                    }
                }
            ],
            "name" : "Cube.072Action",
            "samplers" : [
                {
                    "input" : 12,
                    "interpolation" : "LINEAR",
                    "output" : 13
                }
            ]
        }
    ],
    "materials" : [
        {
            "doubleSided" : true,
            "name" : "Material.001",
            "pbrMetallicRoughness" : {
                "baseColorFactor" : [
                    0.41357454657554626,
                    0.3000536859035492,
                    0.8000000715255737,
                    0.4504950940608978
                ],
                "metallicFactor" : 0.7444193363189697,
                "roughnessFactor" : 0.0792078971862793
            }
        },
        {
            "doubleSided" : true,
            "name" : "Material.002",
            "pbrMetallicRoughness" : {
                "baseColorFactor" : [
                    0.32105186581611633,
                    0.19974370300769806,
                    0.8000000715255737,
                    0.4504950940608978
                ],
                "metallicFactor" : 0.8879836797714233,
                "roughnessFactor" : 0.0792078971862793
            }
        }
    ],
    "meshes" : [
        {
            "name" : "Cube.033",
            "primitives" : [
                {
                    "attributes" : {
                        "POSITION" : 0,
                        "NORMAL" : 1,
                        "TANGENT" : 2,
                        "TEXCOORD_0" : 3
                    },
                    "indices" : 4,
                    "material" : 0
                }
            ]
        },
        {
            "name" : "Cube.072",
            "primitives" : [
                {
                    "attributes" : {
                        "POSITION" : 5,
                        "NORMAL" : 6,
                        "TANGENT" : 7,
                        "TEXCOORD_0" : 8
                    },
                    "indices" : 9,
                    "material" : 1
                }
            ]
        }
    ],
    "accessors" : [
        {
            "bufferView" : 0,
            "componentType" : 5126,
            "count" : 1819,
            "max" : [
                28.197265625,
                1.021260380744934,
                16.54140281677246
            ],
            "min" : [
                -12.837127685546875,
                -1.0125778913497925,
                -24.406509399414062
            ],
            "type" : "VEC3"
        },
        {
            "bufferView" : 1,
            "componentType" : 5126,
            "count" : 1819,
            "type" : "VEC3"
        },
        {
            "bufferView" : 2,
            "componentType" : 5126,
            "count" : 1819,
            "type" : "VEC4"
        },
        {
            "bufferView" : 3,
            "componentType" : 5126,
            "count" : 1819,
            "type" : "VEC2"
        },
        {
            "bufferView" : 4,
            "componentType" : 5123,
            "count" : 3156,
            "type" : "SCALAR"
        },
        {
            "bufferView" : 5,
            "componentType" : 5126,
            "count" : 1834,
            "max" : [
                2.400219440460205,
                1.0346853733062744,
                11.754152297973633
            ],
            "min" : [
                -11.767315864562988,
                -1.0651260614395142,
                -2.3835315704345703
            ],
            "type" : "VEC3"
        },
        {
            "bufferView" : 6,
            "componentType" : 5126,
            "count" : 1834,
            "type" : "VEC3"
        },
        {
            "bufferView" : 7,
            "componentType" : 5126,
            "count" : 1834,
            "type" : "VEC4"
        },
        {
            "bufferView" : 8,
            "componentType" : 5126,
            "count" : 1834,
            "type" : "VEC2"
        },
        {
            "bufferView" : 9,
            "componentType" : 5123,
            "count" : 3156,
            "type" : "SCALAR"
        },
        {
            "bufferView" : 10,
            "componentType" : 5126,
            "count" : 181,
            "max" : [
                7.5
            ],
            "min" : [
                0
            ],
            "type" : "SCALAR"
        },
        {
            "bufferView" : 11,
            "componentType" : 5126,
            "count" : 181,
            "type" : "VEC4"
        },
        {
            "bufferView" : 12,
            "componentType" : 5126,
            "count" : 101,
            "max" : [
                4.166666666666667
            ],
            "min" : [
                0
            ],
            "type" : "SCALAR"
        },
        {
            "bufferView" : 13,
            "componentType" : 5126,
            "count" : 101,
            "type" : "VEC4"
        }
    ],
    "bufferViews" : [
        {
            "buffer" : 0,
            "byteLength" : 21828,
            "byteOffset" : 0
        },
        {
            "buffer" : 0,
            "byteLength" : 21828,
            "byteOffset" : 21828
        },
        {
            "buffer" : 0,
            "byteLength" : 29104,
            "byteOffset" : 43656
        },
        {
            "buffer" : 0,
            "byteLength" : 14552,
            "byteOffset" : 72760
        },
        {
            "buffer" : 0,
            "byteLength" : 6312,
            "byteOffset" : 87312
        },
        {
            "buffer" : 0,
            "byteLength" : 22008,
            "byteOffset" : 93624
        },
        {
            "buffer" : 0,
            "byteLength" : 22008,
            "byteOffset" : 115632
        },
        {
            "buffer" : 0,
            "byteLength" : 29344,
            "byteOffset" : 137640
        },
        {
            "buffer" : 0,
            "byteLength" : 14672,
            "byteOffset" : 166984
        },
        {
            "buffer" : 0,
            "byteLength" : 6312,
            "byteOffset" : 181656
        },
        {
            "buffer" : 0,
            "byteLength" : 724,
            "byteOffset" : 187968
        },
        {
            "buffer" : 0,
            "byteLength" : 2896,
            "byteOffset" : 188692
        },
        {
            "buffer" : 0,
            "byteLength" : 404,
            "byteOffset" : 191588
        },
        {
            "buffer" : 0,
            "byteLength" : 1616,
            "byteOffset" : 191992
        }
    ],
    "buffers" : [
        {
            "byteLength" : 193608,
            "uri" : "data:application/octet-stream;base64,"
        }
    ]
}
