{
    "asset" : {
        "generator" : "Khronos glTF Blender I/O v1.5.17",
        "version" : "2.0"
    },
    "scene" : 0,
    "scenes" : [
        {
            "extras" : {
                "glTF2ExportSettings" : {
                    "export_apply" : 1,
                    "export_cameras" : 1,
                    "export_draco_mesh_compression_enable" : 0,
                    "export_extras" : 1,
                    "export_format" : "GLTF_EMBEDDED",
                    "export_lights" : 1,
                    "export_texture_dir" : "",
                    "use_selection" : 1
                }
            },
            "name" : "Scene",
            "nodes" : [
                0,
                1
            ]
        }
    ],
    "nodes" : [
        {
            "mesh" : 0,
            "name" : "Cube.033",
            "rotation" : [
                0,
                0,
                0.709269642829895,
                0.7049372792243958
            ],
            "scale" : [
                -0.06481241434812546,
                -0.22431765496730804,
                -0.06567752361297607
            ],
            "translation" : [
                -7.540890693664551,
                6.798060417175293,
                7.455758094787598
            ]
        },
        {
            "mesh" : 1,
            "name" : "Cube.072",
            "rotation" : [
                0.2604438066482544,
                -0.2620444595813751,
                0.6590873599052429,
                0.6550615429878235
            ],
            "scale" : [
                -0.1396525353193283,
                -0.25383123755455017,
                -0.14151285588741302
            ],
            "translation" : [
                6.30019474029541,
                2.635056495666504,
                -6.943987846374512
            ]
        }
    ],
    "animations" : [
        {
            "channels" : [
                {
                    "sampler" : 0,
                    "target" : {
                        "node" : 1,
                        "path" : "translation"
                    }
                },
                {
                    "sampler" : 1,
                    "target" : {
                        "node" : 1,
                        "path" : "rotation"
                    }
                },
                {
                    "sampler" : 2,
                    "target" : {
                        "node" : 1,
                        "path" : "scale"
                    }
                }
            ],
            "name" : "Cube.072Action",
            "samplers" : [
                {
                    "input" : 8,
                    "interpolation" : "LINEAR",
                    "output" : 9
                },
                {
                    "input" : 8,
                    "interpolation" : "LINEAR",
                    "output" : 10
                },
                {
                    "input" : 11,
                    "interpolation" : "STEP",
                    "output" : 12
                }
            ]
        }
    ],
    "materials" : [
        {
            "doubleSided" : true,
            "emissiveFactor" : [
                0.8999999761581421,
                0.8999999761581421,
                0.8999999761581421
            ],
            "name" : "Material.001",
            "pbrMetallicRoughness" : {
                "baseColorFactor" : [
                    0.33191171288490295,
                    0.36201682686805725,
                    0.8000000715255737,
                    0.4504950940608978
                ],
                "metallicFactor" : 0.8879836797714233,
                "roughnessFactor" : 0.0792078971862793
            }
        },
        {
            "doubleSided" : true,
            "emissiveFactor" : [
                0.8999999761581421,
                0.8999999761581421,
                0.8999999761581421
            ],
            "name" : "Material.002",
            "pbrMetallicRoughness" : {
                "baseColorFactor" : [
                    0.33191171288490295,
                    0.36201682686805725,
                    0.8000000715255737,
                    0.4504950940608978
                ],
                "metallicFactor" : 0.8879836797714233,
                "roughnessFactor" : 0.0792078971862793
            }
        }
    ],
    "meshes" : [
        {
            "name" : "Cube.033",
            "primitives" : [
                {
                    "attributes" : {
                        "POSITION" : 0,
                        "NORMAL" : 1,
                        "TEXCOORD_0" : 2
                    },
                    "indices" : 3,
                    "material" : 0
                }
            ]
        },
        {
            "name" : "Cube.072",
            "primitives" : [
                {
                    "attributes" : {
                        "POSITION" : 4,
                        "NORMAL" : 5,
                        "TEXCOORD_0" : 6
                    },
                    "indices" : 7,
                    "material" : 1
                }
            ]
        }
    ],
    "accessors" : [
        {
            "bufferView" : 0,
            "componentType" : 5126,
            "count" : 1783,
            "max" : [
                28.197265625,
                1.021260380744934,
                16.54140281677246
            ],
            "min" : [
                -12.837127685546875,
                -1.0125778913497925,
                -24.406509399414062
            ],
            "type" : "VEC3"
        },
        {
            "bufferView" : 1,
            "componentType" : 5126,
            "count" : 1783,
            "type" : "VEC3"
        },
        {
            "bufferView" : 2,
            "componentType" : 5126,
            "count" : 1783,
            "type" : "VEC2"
        },
        {
            "bufferView" : 3,
            "componentType" : 5123,
            "count" : 3156,
            "type" : "SCALAR"
        },
        {
            "bufferView" : 4,
            "componentType" : 5126,
            "count" : 1794,
            "max" : [
                2.400219440460205,
                1.0346853733062744,
                11.754152297973633
            ],
            "min" : [
                -11.767315864562988,
                -1.0651260614395142,
                -2.3835315704345703
            ],
            "type" : "VEC3"
        },
        {
            "bufferView" : 5,
            "componentType" : 5126,
            "count" : 1794,
            "type" : "VEC3"
        },
        {
            "bufferView" : 6,
            "componentType" : 5126,
            "count" : 1794,
            "type" : "VEC2"
        },
        {
            "bufferView" : 7,
            "componentType" : 5123,
            "count" : 3156,
            "type" : "SCALAR"
        },
        {
            "bufferView" : 8,
            "componentType" : 5126,
            "count" : 2,
            "max" : [
                0.041666666666666664
            ],
            "min" : [
                0
            ],
            "type" : "SCALAR"
        },
        {
            "bufferView" : 9,
            "componentType" : 5126,
            "count" : 2,
            "type" : "VEC3"
        },
        {
            "bufferView" : 10,
            "componentType" : 5126,
            "count" : 2,
            "type" : "VEC4"
        },
        {
            "bufferView" : 11,
            "componentType" : 5126,
            "count" : 1,
            "max" : [
                0
            ],
            "min" : [
                0
            ],
            "type" : "SCALAR"
        },
        {
            "bufferView" : 12,
            "componentType" : 5126,
            "count" : 1,
            "type" : "VEC3"
        }
    ],
    "bufferViews" : [
        {
            "buffer" : 0,
            "byteLength" : 21396,
            "byteOffset" : 0
        },
        {
            "buffer" : 0,
            "byteLength" : 21396,
            "byteOffset" : 21396
        },
        {
            "buffer" : 0,
            "byteLength" : 14264,
            "byteOffset" : 42792
        },
        {
            "buffer" : 0,
            "byteLength" : 6312,
            "byteOffset" : 57056
        },
        {
            "buffer" : 0,
            "byteLength" : 21528,
            "byteOffset" : 63368
        },
        {
            "buffer" : 0,
            "byteLength" : 21528,
            "byteOffset" : 84896
        },
        {
            "buffer" : 0,
            "byteLength" : 14352,
            "byteOffset" : 106424
        },
        {
            "buffer" : 0,
            "byteLength" : 6312,
            "byteOffset" : 120776
        },
        {
            "buffer" : 0,
            "byteLength" : 8,
            "byteOffset" : 127088
        },
        {
            "buffer" : 0,
            "byteLength" : 24,
            "byteOffset" : 127096
        },
        {
            "buffer" : 0,
            "byteLength" : 32,
            "byteOffset" : 127120
        },
        {
            "buffer" : 0,
            "byteLength" : 4,
            "byteOffset" : 127152
        },
        {
            "buffer" : 0,
            "byteLength" : 12,
            "byteOffset" : 127156
        }
    ],
    "buffers" : [
        {
            "byteLength" : 127168,
            "uri" : "data:application/octet-stream;base64,"
        }
    ]
}
