{
    "asset" : {
        "generator" : "Khronos glTF Blender I/O v1.5.17",
        "version" : "2.0"
    },
    "scene" : 0,
    "scenes" : [
        {
            "extras" : {
                "glTF2ExportSettings" : {
                    "export_apply" : 1,
                    "export_cameras" : 1,
                    "export_extras" : 1,
                    "export_format" : "GLTF_EMBEDDED",
                    "export_tangents" : 1,
                    "export_texture_dir" : ""
                }
            },
            "name" : "Scene",
            "nodes" : [
                0,
                1,
                2,
                3,
                5,
                6,
                7,
                8
            ]
        }
    ],
    "nodes" : [
        {
            "mesh" : 0,
            "name" : "Icosphere.001",
            "scale" : [
                0.055878862738609314,
                0.1101701483130455,
                0.055878862738609314
            ],
            "translation" : [
                2.8029513359069824,
                0.08843611180782318,
                -0.03766925632953644
            ]
        },
        {
            "mesh" : 1,
            "name" : "Icosphere.002",
            "scale" : [
                0.08706026524305344,
                0.1716470569372177,
                0.08706026524305344
            ],
            "translation" : [
                1.60575532913208,
                0.08843611180782318,
                -0.03766925632953644
            ]
        },
        {
            "mesh" : 2,
            "name" : "Icosphere.003",
            "scale" : [
                0.08632823079824448,
                0.16669028997421265,
                0.1218603327870369
            ],
            "translation" : [
                2.1208319664001465,
                2.4318695068359375e-05,
                0.1959082931280136
            ]
        },
        {
            "name" : "Light",
            "rotation" : [
                0.20929992198944092,
                0.6580209136009216,
                -0.24260546267032623,
                0.6814283728599548
            ],
            "translation" : [
                1.9473881721496582,
                2.1741652488708496,
                -0.493786096572876
            ]
        },
        {
            "camera" : 0,
            "name" : "Camera_Orientation",
            "rotation" : [
                -0.7071067690849304,
                0,
                0,
                0.7071067690849304
            ]
        },
        {
            "children" : [
                4
            ],
            "name" : "Camera",
            "rotation" : [
                0.483536034822464,
                0.33687159419059753,
                -0.20870360732078552,
                0.7804827094078064
            ],
            "translation" : [
                7.358891487121582,
                4.958309173583984,
                6.925790786743164
            ]
        },
        {
            "mesh" : 3,
            "name" : "Icosphere",
            "scale" : [
                0.07770629972219467,
                0.15320487320423126,
                0.07770629972219467
            ],
            "translation" : [
                2.2241995334625244,
                0.08843611180782318,
                -0.03766925632953644
            ]
        },
        {
            "name" : "Empty",
            "rotation" : [
                0.0007259545964188874,
                -0.7055376768112183,
                -0.0007075468893162906,
                0.7086716890335083
            ]
        },
        {
            "name" : "Plane.005",
            "rotation" : [
                0,
                -0.4719259738922119,
                0,
                0.8816381692886353
            ],
            "scale" : [
                0.023226838558912277,
                0.08459621667861938,
                0.07078013569116592
            ],
            "translation" : [
                1.852298378944397,
                0,
                0.6223440170288086
            ]
        }
    ],
    "cameras" : [
        {
            "name" : "Camera",
            "perspective" : {
                "aspectRatio" : 1.7777777777777777,
                "yfov" : 0.39959652046304894,
                "zfar" : 100,
                "znear" : 0.10000000149011612
            },
            "type" : "perspective"
        }
    ],
    "materials" : [
        {
            "alphaMode" : "BLEND",
            "doubleSided" : true,
            "emissiveFactor" : [
                1,
                1,
                1
            ],
            "name" : "Material.002",
            "pbrMetallicRoughness" : {
                "baseColorFactor" : [
                    0.2458074390888214,
                    0.14483889937400818,
                    0.8000000715255737,
                    1
                ],
                "roughnessFactor" : 0
            }
        },
        {
            "alphaMode" : "BLEND",
            "doubleSided" : true,
            "name" : "Material.003",
            "pbrMetallicRoughness" : {
                "metallicFactor" : 0,
                "roughnessFactor" : 0
            }
        },
        {
            "doubleSided" : true,
            "name" : "Material",
            "pbrMetallicRoughness" : {
                "metallicFactor" : 0.6045454740524292,
                "roughnessFactor" : 0.1818181872367859
            }
        },
        {
            "alphaMode" : "BLEND",
            "doubleSided" : true,
            "emissiveFactor" : [
                1,
                1,
                1
            ],
            "name" : "Material.001",
            "pbrMetallicRoughness" : {
                "baseColorFactor" : [
                    0.2458074390888214,
                    0.14483889937400818,
                    0.8000000715255737,
                    1
                ],
                "metallicFactor" : 0.8235293626785278,
                "roughnessFactor" : 0
            }
        }
    ],
    "meshes" : [
        {
            "name" : "Icosphere.001",
            "primitives" : [
                {
                    "attributes" : {
                        "POSITION" : 0,
                        "NORMAL" : 1,
                        "TANGENT" : 2,
                        "TEXCOORD_0" : 3
                    },
                    "indices" : 4,
                    "material" : 0
                }
            ]
        },
        {
            "name" : "Icosphere.002",
            "primitives" : [
                {
                    "attributes" : {
                        "POSITION" : 5,
                        "NORMAL" : 6,
                        "TANGENT" : 7,
                        "TEXCOORD_0" : 8
                    },
                    "indices" : 9,
                    "material" : 1
                }
            ]
        },
        {
            "name" : "Icosphere.003",
            "primitives" : [
                {
                    "attributes" : {
                        "POSITION" : 10,
                        "NORMAL" : 11,
                        "TANGENT" : 12,
                        "TEXCOORD_0" : 13
                    },
                    "indices" : 14,
                    "material" : 2
                }
            ]
        },
        {
            "name" : "Icosphere",
            "primitives" : [
                {
                    "attributes" : {
                        "POSITION" : 15,
                        "NORMAL" : 16,
                        "TANGENT" : 17,
                        "TEXCOORD_0" : 18
                    },
                    "indices" : 19,
                    "material" : 3
                }
            ]
        }
    ],
    "accessors" : [
        {
            "bufferView" : 0,
            "componentType" : 5126,
            "count" : 72,
            "max" : [
                1.028422474861145,
                1.060727596282959,
                1.018088936805725
            ],
            "min" : [
                -1.0438892841339111,
                -1.060727596282959,
                -0.938087522983551
            ],
            "type" : "VEC3"
        },
        {
            "bufferView" : 1,
            "componentType" : 5126,
            "count" : 72,
            "type" : "VEC3"
        },
        {
            "bufferView" : 2,
            "componentType" : 5126,
            "count" : 72,
            "type" : "VEC4"
        },
        {
            "bufferView" : 3,
            "componentType" : 5126,
            "count" : 72,
            "type" : "VEC2"
        },
        {
            "bufferView" : 4,
            "componentType" : 5123,
            "count" : 72,
            "type" : "SCALAR"
        },
        {
            "bufferView" : 5,
            "componentType" : 5126,
            "count" : 60,
            "max" : [
                1.028422474861145,
                1.123654842376709,
                1.018088936805725
            ],
            "min" : [
                -1.0438892841339111,
                -1.060727596282959,
                -0.938087522983551
            ],
            "type" : "VEC3"
        },
        {
            "bufferView" : 6,
            "componentType" : 5126,
            "count" : 60,
            "type" : "VEC3"
        },
        {
            "bufferView" : 7,
            "componentType" : 5126,
            "count" : 60,
            "type" : "VEC4"
        },
        {
            "bufferView" : 8,
            "componentType" : 5126,
            "count" : 60,
            "type" : "VEC2"
        },
        {
            "bufferView" : 9,
            "componentType" : 5123,
            "count" : 60,
            "type" : "SCALAR"
        },
        {
            "bufferView" : 10,
            "componentType" : 5126,
            "count" : 66,
            "max" : [
                1.028422474861145,
                1.060727596282959,
                1.018088936805725
            ],
            "min" : [
                -1.0438892841339111,
                -1.060727596282959,
                -0.938087522983551
            ],
            "type" : "VEC3"
        },
        {
            "bufferView" : 11,
            "componentType" : 5126,
            "count" : 66,
            "type" : "VEC3"
        },
        {
            "bufferView" : 12,
            "componentType" : 5126,
            "count" : 66,
            "type" : "VEC4"
        },
        {
            "bufferView" : 13,
            "componentType" : 5126,
            "count" : 66,
            "type" : "VEC2"
        },
        {
            "bufferView" : 14,
            "componentType" : 5123,
            "count" : 66,
            "type" : "SCALAR"
        },
        {
            "bufferView" : 15,
            "componentType" : 5126,
            "count" : 60,
            "max" : [
                1.0389633178710938,
                0.9942756295204163,
                0.9461165070533752
            ],
            "min" : [
                -1.0389633178710938,
                -0.9942756295204163,
                -0.9461165070533752
            ],
            "type" : "VEC3"
        },
        {
            "bufferView" : 16,
            "componentType" : 5126,
            "count" : 60,
            "type" : "VEC3"
        },
        {
            "bufferView" : 17,
            "componentType" : 5126,
            "count" : 60,
            "type" : "VEC4"
        },
        {
            "bufferView" : 18,
            "componentType" : 5126,
            "count" : 60,
            "type" : "VEC2"
        },
        {
            "bufferView" : 19,
            "componentType" : 5123,
            "count" : 60,
            "type" : "SCALAR"
        }
    ],
    "bufferViews" : [
        {
            "buffer" : 0,
            "byteLength" : 864,
            "byteOffset" : 0
        },
        {
            "buffer" : 0,
            "byteLength" : 864,
            "byteOffset" : 864
        },
        {
            "buffer" : 0,
            "byteLength" : 1152,
            "byteOffset" : 1728
        },
        {
            "buffer" : 0,
            "byteLength" : 576,
            "byteOffset" : 2880
        },
        {
            "buffer" : 0,
            "byteLength" : 144,
            "byteOffset" : 3456
        },
        {
            "buffer" : 0,
            "byteLength" : 720,
            "byteOffset" : 3600
        },
        {
            "buffer" : 0,
            "byteLength" : 720,
            "byteOffset" : 4320
        },
        {
            "buffer" : 0,
            "byteLength" : 960,
            "byteOffset" : 5040
        },
        {
            "buffer" : 0,
            "byteLength" : 480,
            "byteOffset" : 6000
        },
        {
            "buffer" : 0,
            "byteLength" : 120,
            "byteOffset" : 6480
        },
        {
            "buffer" : 0,
            "byteLength" : 792,
            "byteOffset" : 6600
        },
        {
            "buffer" : 0,
            "byteLength" : 792,
            "byteOffset" : 7392
        },
        {
            "buffer" : 0,
            "byteLength" : 1056,
            "byteOffset" : 8184
        },
        {
            "buffer" : 0,
            "byteLength" : 528,
            "byteOffset" : 9240
        },
        {
            "buffer" : 0,
            "byteLength" : 132,
            "byteOffset" : 9768
        },
        {
            "buffer" : 0,
            "byteLength" : 720,
            "byteOffset" : 9900
        },
        {
            "buffer" : 0,
            "byteLength" : 720,
            "byteOffset" : 10620
        },
        {
            "buffer" : 0,
            "byteLength" : 960,
            "byteOffset" : 11340
        },
        {
            "buffer" : 0,
            "byteLength" : 480,
            "byteOffset" : 12300
        },
        {
            "buffer" : 0,
            "byteLength" : 120,
            "byteOffset" : 12780
        }
    ],
    "buffers" : [
        {
            "byteLength" : 12900,
            "uri" : "data:application/octet-stream;base64,"
        }
    ]
}
